<?xml version="1.0" standalone="yes"?>
<svg xmlns="http://www.w3.org/2000/svg" width="577" height="433">
<path style="fill:#030202; stroke:none;" d="M0 0L0 124L0 433L508 433L534 433L538 433L548 433L560 433L577 433L577 410L577 372L577 358L577 352L577 329L577 295L577 0L564 0L533 0L486 0L0 0z"/>
<path style="fill:#cbc4c2; stroke:none;" d="M190.667 67.3333L190.667 67.6667L191.333 67.6667L191.333 67.3333L190.667 67.3333z"/>
<path style="fill:#a28d8c; stroke:none;" d="M181 71L181.778 71.7222L182.306 71.75L183.111 71.9445L184.028 71.9722L186 72L188 72L192 72L192 70L193.5 70.0833L194.056 70.2222L195.944 70.6111L196.944 70.7778L197.5 70.9167L199 71L198 72L198 74L200 74L201 73L201 68L199.5 67.9167L198.944 67.7778L197.944 67.6111L197 67.3889L195 67.1111L194 67.1111L192 67.3889L191 67.6111L190 67.8055L188 68.2778L187 68.6389L185 69.6111L184.056 70.0833L182.5 70.7222L181 71z"/>
<path style="fill:#cbc4c2; stroke:none;" d="M197 67L197.778 67.7222L198.25 67.75L199.056 67.9445L201 68L200.222 67.2778L199.75 67.25L198.944 67.0555L197 67z"/>
<path style="fill:#815e5d; stroke:none;" d="M201 68L200.917 70.0555L200.583 71.9445L200 74L201.472 74.5278L202.75 75.4445L203.222 75.7778L204 77L206.056 77.0833L207.944 77.3889L209.5 77.75L211 78L210.333 79.1944L209.667 79.9722L209 81L210.5 81.7222L211 81.75L212 81.9445L214 82L214.417 80.5555L214.75 79.4445L215 78L216 80L217 80L218.083 79.6667L218.444 79.7778L219.194 79.6945L219.861 79.7778L220.583 79.75L221.333 79.8333L223 80L222.833 78.5L223.333 78.1667L225 78.5L225.667 79L226.167 79.6667L226 81L227.5 81.2778L228.972 81.9445L229.778 82.4722L230.611 83.1389L232.222 84.3889L234.028 85.3889L236 86.5L238 87.9722L240 89.3055L241 89.75L243 90.4445L244 90.8611L245 91.25L247 92.2222L247.972 92.7222L249.667 93.25L250.278 93.0833L250.639 93.0555L251 92L252.972 94.0278L253.833 94.9445L255.333 96.2778L256.583 96.8889L258 97L256 98L256 99L257.444 99.7222L258 99.75L260 100L260.361 101.5L261.333 103.056L262.917 105L263.667 105.944L264.639 107.5L265 109L265.722 108.222L265.75 107.694L265.944 106.889L265.972 105.972L265.944 104L265.861 103L265.778 101L265.806 99L265.806 97L265.778 96.0555L265.833 94.5L266 93L263.944 91.5555L262.944 90.8055L262 90.1389L260 88.6111L258 87L256 85.4722L254 84.25L253 83.7778L252 83.25L250 82.4445L249 82.1667L247 81.5555L246 81.1667L244 80.3889L242 79.6111L240 78.75L239 78.2222L238 77.7778L237 77.2222L235 76.25L234 75.8333L233 75.3889L232 75.0278L231 74.6667L229 74L227 73.3333L226 73L225 72.6945L224 72.3889L222 71.8611L221 71.6389L220 71.3889L219 71.1945L217 70.8055L216 70.6111L215 70.3889L214 70.1945L212 69.8055L211 69.6111L209 69.2222L208 69.0833L206 68.9722L205 68.9167L203.056 68.5833L201 68z"/>
<path style="fill:#a28d8c; stroke:none;" d="M202 68L202.722 68.7222L203.25 68.75L205 69L204.278 68.2778L203.75 68.25L202 68z"/>
<path style="fill:#cbc4c2; stroke:none;" d="M205 68L205.778 68.7222L206.25 68.75L207.056 68.9445L209 69L208.222 68.2778L207.75 68.25L206.944 68.0555L205 68M184.667 69.3333L184.667 69.6667L185.333 69.6667L185 69.3333L184.667 69.3333z"/>
<path style="fill:#a28d8c; stroke:none;" d="M210 69L210.778 69.7222L211.25 69.75L212.056 69.9445L214 70L213.222 69.2778L212.75 69.25L211.944 69.0555L210 69z"/>
<path style="fill:#cbc4c2; stroke:none;" d="M181 70L181.722 70.7222L182.25 70.75L184 71L183.278 70.2778L182.75 70.25L181 70z"/>
<path style="fill:#815e5d; stroke:none;" d="M192 70L192.778 70.7222L193.25 70.75L194.056 70.9445L196 71L195.222 70.2778L194.75 70.25L193.944 70.0555L192 70z"/>
<path style="fill:#cbc4c2; stroke:none;" d="M215 70L215.722 70.7222L216.25 70.75L218 71L217.278 70.2778L216.75 70.25L215 70M177 72L177.778 72.6389L178.25 72.5278L179.056 72.5278L181 72L180.222 71.3611L179.75 71.4722L178.944 71.4722L177 72z"/>
<path style="fill:#633d3d; stroke:none;" d="M145 100L143.528 100.361L142.167 101.306L140.611 102.778L139.778 103.5L138.028 104.5L137.056 104.75L135 105L134.222 106.25L133.694 106.639L132.944 107.333L131.5 108.306L130 109L130 111.056L130 112.056L130.028 113L130.056 113.944L130.25 114.944L130.278 115.5L131 117L129.861 117.361L129.639 117.722L129.194 118.333L128.611 120.028L128.306 121L127.694 123L127.417 124L127.167 126L127.25 127L127.389 128L127.611 129L127.889 131L127.889 132L127.611 134L127.389 135L127.083 137L127.056 138L127.083 139L127.472 141L128.194 143L128.611 144L128.972 145L129.333 146L129.667 147L130.333 149L130.667 150L131.417 152L131.889 153L133 155L133.611 156L134.75 158L135.25 159L136.389 161L137.611 163L138.194 163.972L139.444 165.778L140.167 166.611L141.528 168.222L142.056 169.028L142.722 170.5L143 172L144.472 172.778L144.972 173.306L145.833 174.111L147.389 176L149.083 178L150.028 178.972L151 179.917L152.972 181.611L153.917 182.389L155.611 184L157.222 185.611L159.028 187.222L160 188.083L162 190L163 190.972L164.944 192.667L166.5 193.639L168 194L168.111 195.5L168.722 197.056L170.111 199L171.917 201L172.778 202L173.611 203L175.222 205L176.083 206L178 208L180 209.917L181 210.75L182 211.528L184 212.75L185 213.222L187 214.25L188 214.833L190 216L192 217.194L193 217.833L194 218.472L195 219.222L197 220.778L198 221.528L200 222.722L201 223.167L202 223.611L204 224.389L206 225.194L207 225.611L209 226.306L210 226.583L212 226.917L214 227.083L216 227.417L217 227.694L219 228.389L220 228.806L221.944 229.528L222.5 229.722L224 230L224.75 228.75L225.194 228.333L226.306 226.833L226.639 226.417L227 225L229 226L229.528 224L229.528 223L229.639 222.5L229 221L228.194 221.778L228.028 222.25L227.444 223.528L227 225L225.5 224.194L225 224.028L223.5 223.444L222 223L223.944 221.528L224.722 220.722L225.25 219.917L225.611 218.972L225.75 218L225.806 216L226.194 214L227.306 212.111L228.111 211.333L228.972 210.722L230.5 210.111L232 210L231.333 211.25L230.611 212.389L230.333 212.75L230 214L232 214L233 215L232.417 217.056L232.194 218.056L231.806 220L231.611 220.944L231.25 222.5L231 224L232.389 223.639L233.417 222.667L233.889 221.889L234.583 220L234.917 218.056L235 216.5L235 215L237 216L238 216L236.861 217.5L236.25 219.056L236.028 220L235.611 222L235.222 223.944L235.083 224.5L235 226L233.556 226.25L232.444 226.583L231 227L231.333 228.5L232.111 230.028L233.389 231.778L234.111 232.556L234.778 233.333L235.25 233.75L236 235L234.5 234L233 233.194L232.5 233L231 232L229.583 232.528L229.222 232.861L228.417 233.444L227 235L227.667 236.083L227.972 236.472L228.694 238.083L228.889 239.028L228.972 240L229 241L229 243L229 244L229 247L229 248L229 250L229.028 251L229.111 252L229.722 253.972L231.111 255.694L232.028 256.361L234 257.361L235 257.806L237 258.528L239 258.917L240 258.972L242 259L243 259L245 259L246 259L248 259.028L249 259.083L251 259.389L252 259.639L253 259.861L254 260.139L255 260.361L256 260.611L258 260.917L259 260.972L261 261L262 261L264 261L266 260.917L267 260.778L268 260.611L270 260.194L272 259.806L273 259.583L275 258.917L276 258.472L278 257.583L279 257.222L281 256.611L283 255.972L284 255.583L286 254.528L288 253.167L289 252.444L290.972 251.167L291.917 250.528L293.583 248.917L294.889 247.056L295.667 245.5L296 244L294.5 244.361L293.944 244.694L292.944 245.222L291 246.306L290 246.667L288 247.056L286.056 247.444L284.5 248.028L283 249L283 244L284.417 243.639L285.556 242.667L286.472 240.972L286.611 239L286.361 238L285.611 236L285.083 234L284.944 233L284.611 231L284.389 230L284.083 228L283.972 226L283.944 225.028L283.861 224.083L283.806 222.472L284 221L282.5 221.278L281.028 221.75L279.389 222.222L277.778 222.611L276.028 223.222L275.5 223.5L274 224L274.028 222.5L274.222 220.944L274.611 219L274.75 218L274.833 217L274.583 215L274.111 213.083L274.083 211.5L274.694 210.528L276 210L275.639 211.472L275.972 211.944L276.333 212.722L277.528 213.639L279 214L278.333 212.667L278.139 212.306L277 212L278.75 211L279.278 210.778L280 210L279.639 208.611L279.917 208.278L280.639 207.361L282 207L281.75 205.5L281.278 204.028L280.444 202.417L279.333 201.111L278.25 200.333L277 200L277.25 198.5L277.611 197L277.778 196.056L277.917 195.5L278 194L279.472 193.639L280.722 192.667L281.583 190.972L281.472 189.028L281.056 188.083L280.5 187.25L278.917 185.944L277 185.333L276 185.278L274 185.389L273 185.389L271.056 185.194L270.5 185.083L269 185L270.139 183.5L270.722 181.944L270.889 181L271 179L270.972 178L270.667 176.028L269.667 174.333L268.917 173.75L268.111 173.444L267.389 173.389L266.972 173.694L266.639 173.861L267 175L265.833 174.222L265.556 173.694L264.944 172.889L264.389 171.972L262.917 170.139L261.333 169L260.722 169L260.361 168.972L260 170L259.361 168.5L259.472 168L259.472 167L260 165L258.667 165.667L258.306 165.861L258 167L256.5 166.639L255.972 166.972L255.056 167.333L253.778 168.528L253 170L254.389 170.722L254.75 171.25L256 173L254.5 172.278L254 172.25L253 172.056L251 172L250.472 173.472L249.556 174.75L249.222 175.222L248 176L248 169L249.444 168.583L250.556 168.25L252 168L252 162L251 162L249 163L249.306 161.556L249.667 161L251 159L251 158L249 156L250.5 156.028L252.056 156.222L254 156.611L256 156.833L256.944 156.75L257.944 156.583L260 156L260 157L261 159L262.444 158.75L263.556 158.417L265 158L264.333 159.25L263.611 160.389L263.333 160.75L263 162L264.5 161.694L266 161.889L267.5 162.639L269 164L267.25 164.25L266.722 164.278L266 165L266.25 166.5L266.722 168.056L267.111 169L268.306 170.917L270.028 172.611L272 174.083L272.944 174.694L273.944 175.056L274.5 175.361L276 175L276.083 176.5L276.222 177.056L276.417 178.056L277.028 180L277.417 180.972L278.5 182.694L280.083 183.972L281.028 184.5L282.944 185.444L284.5 186.167L286 187L285 188L283 188L283.333 189.5L284.111 190.944L284.667 191.667L285.75 192.639L287 193L286.028 194.5L285.444 196.056L285.083 198L285.028 199L285.028 201L285.083 202L285.444 203.889L285.861 204.694L286.028 205.222L287 206L287.667 204.556L287.5 204L287 202L289 201.75L289.556 201.722L291 201L291 196L291.722 197.5L291.75 198.056L291.889 200L291.583 201.944L291 204L292.139 205.5L292.361 206.056L292.806 207.056L293.111 208L293.611 209.944L293.778 210.944L293.917 211.5L294 213L294.722 212.278L294.75 211.75L295 210L295.722 211.5L295.75 212.056L295.944 213.056L295.972 214L296 216L296 217.944L296 221L296.778 220.278L297 219.75L298 218L298.417 219.444L298.75 220.556L299 222L300.5 222.083L302.056 222.361L302.944 222.556L303.944 222.528L304.5 222.639L306 222L305.694 220.861L305.333 220.667L304 220L304.083 217.944L304.389 216.056L304.75 214.5L305 213L299 213L300.306 211.528L300.611 210.722L300.583 209.917L300.361 208.972L299.694 207L299.528 206.056L299.611 204.5L300 203L299.028 201.5L298.833 200.944L298.333 199.972L297.417 198.333L296.389 197.361L295 197L295 196L297 194L296.528 192.556L296.167 192L295 190L297 190L296.583 188.556L296.25 187.444L296 186L297 187.5L297.194 188L298 189.5L299 191L299.694 190.222L299.694 189.75L299.694 188.472L299 187L300.139 186.639L300.361 186.278L300.806 185.667L301.389 184.028L302 182L302.75 183.5L302.806 184L303.25 185.5L304 187L305.139 186.222L305.639 184.889L305.5 183L304.75 181L304.25 180L303.417 178L303.111 177L302.806 175.056L302.833 174.056L303 172L301 170L300 170L301.139 167.944L301.528 166.944L301.694 165L301.583 164L301.111 162L300.389 160L299.389 158L298.389 156L297.444 154.028L296.917 153.083L295.639 151.444L294.417 150.25L293 149L291.5 149.25L290 149.611L289.056 149.778L288.5 149.917L287 150L287.25 148.556L287.583 147.444L288 146L286.583 145.222L286.222 144.75L285.417 143.944L284 142L282 142.333L280 143.167L279 143.667L277 143.667L276.167 143.5L275.5 143.667L275 144.667L275 146L274.222 144.5L273.972 142.944L274.028 142L274.472 140.056L274.694 139.5L275 138L273.556 137.278L273 136.75L271 135L272.444 134.583L273.556 134.25L275 134L274.75 132L274.722 131.444L274 130L272.583 130.528L271.417 131.5L270.167 133.083L269.528 134.028L267.917 135.917L267.028 136.722L266.056 137.528L264 139L264 132L266 133L267 133L267.667 131.25L267.861 130.722L269 130L268.972 128.5L268.75 126.944L268.528 126L267.778 124L267.333 123L266.861 121.056L266.861 120.056L267 118L265.5 117.278L265 117.25L264 117.056L262 117L261.667 115.5L261.361 114.944L260.889 113.944L260.306 113L259.083 111L258 109L257.5 108L257.028 107.056L256.611 106.056L256.333 105.5L256 104L257.194 104.722L257.583 105.25L259 107L264 107L263.75 108.5L263.611 109L263.25 110.5L263 112L264.472 111.972L265.806 111.667L266.5 111.333L267.472 110.389L268 109L266.611 108.639L265.556 107.667L264.389 105.972L263.694 105L262.083 103.056L261.306 102.056L260.778 101.5L260 100L258.667 99.8333L257.333 99L257 98.5L257 98.1667L258 98L257.25 97.1667L256.778 96.9167L255.361 95.6945L253.833 94.0833L252.972 93.3055L252.472 92.7778L251 92L250.472 92.8611L250.083 92.8611L248.75 92.6389L247.917 92.1945L246 91.25L244 90.4445L243 90.1389L241 89.3055L240 88.6945L238 87.2222L237 86.5L236 85.9167L235 85.3889L233.083 84.3889L231.389 83.1389L229.778 81.9445L228.917 81.5L227 81.0555L226 80.9445L224.056 80.5555L222.5 79.9722L221 79L219 79.3333L217.167 79.3333L216.5 79.1667L215.833 78.5L215 78L214.583 79.4445L214.25 80.5555L214 82L212.5 81.9167L212 81.7778L211 81.5833L209 81L210.333 79.5833L210.694 79.1944L211 78L208.944 77.4167L207.056 77.0833L206.056 77.0278L204 77L203.639 75.7778L202.667 74.8889L201.028 74.25L199.5 74.0278L198 74L198 73L199 71L196.944 71L195 71.0278L194 71.0833L192 71.3889L191 71.6111L189 71.9167L188 71.9722L186 72L184 72L183 72L181 72.0833L179 72.4167L178 72.6945L176 73.3333L175 73.6667L173 74.4167L172 74.8889L170 76L168 77.1111L167 77.6111L165 78.6111L163 79.8889L162 80.6111L160 81.9722L158.028 83.1945L157.083 83.8333L156.222 84.4722L155.389 85.25L153.861 87.0278L152.361 88.9167L151.611 89.7778L150 91.3889L148.472 93.0833L147.833 94L146.556 95.7778L145.306 97.3333L144.944 98.1667L144.639 98.5833L145 100z"/>
<path style="fill:#a28d8c; stroke:none;" d="M220 71L220.722 71.7222L221.25 71.75L223 72L222.278 71.2778L221.75 71.25L220 71z"/>
<path style="fill:#cbc4c2; stroke:none;" d="M224.667 72.3333L224.667 72.6667L225.333 72.6667L225.333 72.3333L224.667 72.3333M174.667 73.3333L174.667 73.6667L175.333 73.6667L175 73.3333L174.667 73.3333z"/>
<path style="fill:#a28d8c; stroke:none;" d="M210 74L210.778 74.7222L211.306 74.75L212.111 74.9445L213.028 75L215 75.2222L216 75.3889L217.944 75.7222L218.944 75.6667L219.5 75.6945L221 75L220.222 74.25L219.694 74.1667L218.889 73.8333L217.972 73.6389L217 73.4167L215 73.3055L213.056 73.6111L212.056 73.7778L211.5 73.9167L210 74z"/>
<path style="fill:#cbc4c2; stroke:none;" d="M227.667 73.3333L227.667 73.6667L228.333 73.6667L228.333 73.3333L227.667 73.3333z"/>
<path style="fill:#a28d8c; stroke:none;" d="M171.667 74.3333L171.667 74.6667L172.333 74.6667L172.333 74.3333L171.667 74.3333z"/>
<path style="fill:#cbc4c2; stroke:none;" d="M230.667 74.3333L230.667 74.6667L231.333 74.6667L231.333 74.3333L230.667 74.3333M170 75L171 76L170 75M233 75L234 76L233 75z"/>
<path style="fill:#a28d8c; stroke:none;" d="M169 76L170 77L169 76z"/>
<path style="fill:#cbc4c2; stroke:none;" d="M235 76L236 77L235 76z"/>
<path style="fill:#a28d8c; stroke:none;" d="M166.667 77.3333L166.667 77.6667L167.333 77.6667L167 77.3333L166.667 77.3333M237 77L238 78L237 77M222 78L222 79L223 81L225 80.75L225.556 80.7222L227 80L226.222 78.8611L225.694 78.6667L224.944 78.2778L223.5 78.0278L222 78z"/>
<path style="fill:#cbc4c2; stroke:none;" d="M239.667 78.3333L239.667 78.6667L240.333 78.6667L240 78.3333L239.667 78.3333M163 79L164 80L163 79M241 79L241.722 79.7222L242.25 79.75L244 80L243.278 79.2778L242.75 79.25L241 79M161 80L162 81L161 80z"/>
<path style="fill:#a28d8c; stroke:none;" d="M162 80L163 81L162 80M244 80L244.778 80.9722L245.306 81.1389L246.056 81.5555L247.5 81.9167L249 82L248.222 81.0278L247.694 80.8611L246.944 80.4445L245.5 80.0833L244 80z"/>
<path style="fill:#cbc4c2; stroke:none;" d="M160 81L161 82L160 81M249 81L250 82L249 81z"/>
<path style="fill:#a28d8c; stroke:none;" d="M159 82L160 83L159 82z"/>
<path style="fill:#815e5d; stroke:none;" d="M197 82L197 84L198 85L198.972 84.2778L199.167 83.75L200 82L197 82z"/>
<path style="fill:#cbc4c2; stroke:none;" d="M250 82L251 83L250 82M157 83L158 84L157 83M252 83L253 84L252 83M254 84L255 85L254 84M154 85L155 86L154 85z"/>
<path style="fill:#815e5d; stroke:none;" d="M153 86L150.944 88.0555L149.972 89.0555L148.333 90.9445L147.361 92.5L147 94L145.5 94.1111L144.056 94.7222L142.611 96.1111L141.389 97.9167L139.972 99.6111L139.194 100.361L137.611 101.833L136.778 102.556L135.917 103.167L134.111 104.472L133.333 105.194L132.361 106.528L132 108L133.389 107.472L133.722 107.139L134.639 106.222L135 105L136.5 104.972L138.028 104.75L138.917 104.5L140.611 103.5L142.167 102.028L143.028 101.278L143.528 100.778L145 100L144.944 98.7778L145.472 97.7778L145.944 97.1667L146.583 96.5278L147.833 94.9167L148.472 94L150 92.2222L151.611 90.6111L153.111 88.9722L153.778 88.0278L154.25 87.5L155 86L153 86z"/>
<path style="fill:#cbc4c2; stroke:none;" d="M257 86L258 87L257 86M151 87L152 88L151 87M258 87L259 88L258 87M150 88L151 89L150 88z"/>
<path style="fill:#a28d8c; stroke:none;" d="M159 88L159 91L159.694 90.25L159.694 89.1945L159.694 88.75L159 88z"/>
<path style="fill:#cbc4c2; stroke:none;" d="M259 88L260 89L259 88M262 90L263 91L262 90M263 91L264 92L263 91z"/>
<path style="fill:#a28d8c; stroke:none;" d="M145.667 93.3333L145.667 93.6667L146.333 93.6667L146 93.3333L145.667 93.3333z"/>
<path style="fill:#815e5d; stroke:none;" d="M157 93L157 95L159 95L159 93L157 93z"/>
<path style="fill:#a28d8c; stroke:none;" d="M266 94L265.361 95.5L265.444 96.0555L265.417 98L265.389 100L265.417 101L265.472 102L265.639 103L265.917 105L265.972 105.944L266 106.944L266 109L268.056 109.611L269.056 109.889L271 110.667L272 111.25L273 111.889L275 113.306L277 114.583L278.944 115.5L280.5 115.917L282 116L282.111 117.389L282.667 118.333L282.861 118.639L284 119L283.75 120.5L283.611 121L283.25 122.5L283 124L286 124L285.222 125.5L283.889 126.944L282 128.278L280.056 128.889L279.056 128.972L277 129L277 132L277 133L279 134L278 135L279.417 135.778L279.806 136.306L280.556 137.056L281.472 138.5L282 140L285.056 140L286 140L287 139.972L287.944 139.944L288.944 139.75L289.5 139.722L291 139L291 141L292 142L293.194 141.694L293.583 141.333L295 140L295.583 142L295.778 143L295.917 143.5L296 145L297.444 145.25L298.556 145.583L300 146L299.889 143.944L299.694 142.944L298.889 141L298.306 140L297.111 138L296.611 137L295.861 135L295.556 134L295.139 133.028L294.722 132.083L293.528 130.389L291.917 128.889L290.056 127.694L289.5 127.361L288 127L288.694 125.75L289.083 125.361L289.694 124.639L290.333 124L291.583 122.583L292.5 120.917L292.75 120.028L292.972 118.5L293 117L291.5 116.028L289.944 115.444L288 115.056L286.056 114.722L284.5 114.139L283 113L282 113L280 114L279.222 112.583L278.694 112.167L277.889 111.361L276 110.083L274.028 108.972L273.111 108.389L271.611 106.889L270.444 105.111L269.75 104.306L269.389 103.778L268 103L268.583 101L268.778 100L268.917 99.5L269 98L270.75 100L271.278 100.556L272 102L272.694 101.25L272.611 100.111L272.25 99.3611L270.889 97.8611L270 97.1389L268.278 95.7222L267.472 95.0833L267.083 94.6945L266 94z"/>
<path style="fill:#cbc4c2; stroke:none;" d="M267 95L268 96L267 95z"/>
<path style="fill:#815e5d; stroke:none;" d="M162 96L162 98L164 98L164 96L162 96z"/>
<path style="fill:#a28d8c; stroke:none;" d="M183 96L184 97L183 96M141.333 97.6667L141.333 98.3333L141.667 98.3333L141.667 98L141.333 97.6667z"/>
<path style="fill:#815e5d; stroke:none;" d="M269 98L268.75 99.5L268.389 101L268.25 101.5L268 103L269.389 104.5L269.75 105.056L270.444 106.028L271 106.889L272.306 108.389L274.028 109.528L276 110.722L277 111.389L278.944 112.75L279.944 113.306L280.5 113.639L282 114L281.889 112.5L281.306 110.944L280.111 109L278.611 107.028L277.778 106.083L276.917 105.222L275.972 104.389L274.083 102.778L272.389 101L271.667 100.111L270.833 99.3055L270.417 98.7778L269 98z"/>
<path style="fill:#a28d8c; stroke:none;" d="M140 99L141 100L140 99z"/>
<path style="fill:#815e5d; stroke:none;" d="M159 99L159 101L161 101L160 99L159 99M177.667 99.3333L177.667 99.6667L178.333 99.6667L178.333 99.3333L177.667 99.3333z"/>
<path style="fill:#cbc4c2; stroke:none;" d="M187 99L188 100L187 99z"/>
<path style="fill:#a28d8c; stroke:none;" d="M173 100L174 101L173 100z"/>
<path style="fill:#cbc4c2; stroke:none;" d="M273 100L273 103L273.694 102.25L273.694 101.194L273.694 100.75L273 100M137 101L138 102L137 101z"/>
<path style="fill:#815e5d; stroke:none;" d="M152 101L153 102L152 101M180 103L181.75 102.333L182.278 102.139L183 101L181.611 101.111L180.667 101.667L180.361 101.861L180 103z"/>
<path style="fill:#a28d8c; stroke:none;" d="M136.667 102.333L136.667 102.667L137.333 102.667L137 102.333L136.667 102.333M134.667 103.333L134.667 103.667L135.333 103.667L135.333 103.333L134.667 103.333z"/>
<path style="fill:#cbc4c2; stroke:none;" d="M274 103L275 104L274 103z"/>
<path style="fill:#a28d8c; stroke:none;" d="M133 104L134 105L133 104M164 106L165.75 105.333L166.278 105.139L167 104L165.611 104.111L164.667 104.667L164.361 104.861L164 106M187 104L187.167 105.194L187.167 105.972L187 107L188.028 106.25L188.056 105.194L188.028 104.75L187 104z"/>
<path style="fill:#815e5d; stroke:none;" d="M256 104L256.111 105.5L256.306 106.056L256.611 107.056L257.028 108L258 110L259.083 112L259.694 113L260.917 114.944L261.306 115.5L262 117L263.5 117.083L264 117.222L265 117.417L267 118L266.5 120.056L266.472 121.056L266.556 122L267.25 124L267.75 125L268.528 126.944L268.917 128.5L269 130L267.861 130.361L267.667 130.667L267.111 131.611L267 133L266 132L264 132L264 139L265.5 138.472L266.056 138.083L267.917 136.75L269.528 134.972L270.167 134.028L271.417 132.278L272.583 131.083L274 130L274.417 131.444L274.75 132.556L275 134L273 134.25L272.444 134.278L271 135L271.778 136.389L272.25 136.722L273.528 137.639L275 138L275 139L273 141L273.25 142.5L273.611 144L273.75 144.5L274 146L274.722 145.278L274.75 144.75L275 143L276.5 143.722L278.056 143.861L280 143.528L281.944 142.806L282.5 142.5L284 142L284.528 143.472L284.917 143.944L285.444 144.722L286.583 145.639L288 146L287.278 147.444L287.25 148L287 150L289.056 149.917L290.944 149.583L293 149L293.75 150.25L294.222 150.667L294.889 151.444L295.611 152.222L296.917 154.028L297.944 156L298.389 157L299.389 159L300.389 161L300.778 162L301.083 163L301.361 165L301.306 166L300.778 167.944L300.5 168.5L300 170L302 172L303 172L302.583 173.444L302.25 174.556L302 176L303.417 176.361L304.444 177.306L304.778 178L304.861 179.222L304 180L304.5 181.5L304.778 182.056L305.306 183.944L305.333 185.5L305 187L303.861 185.5L303.667 185L303.111 183.5L303 182L301.861 182.778L301.639 183.306L301.167 184.083L300.361 185.694L300.139 186.222L299 187L299.417 188.444L299.75 189.556L300 191L298.778 189.5L297.861 188L297.528 187.5L297 186L296.306 186.778L296.306 187.25L296.306 188.528L297 190L295 190L295.472 191.444L295.833 192L297 194L295 195L295 197L296.389 197.778L296.75 198.306L297.417 199.111L298.333 200.889L298.833 201.694L299.028 202.222L300 203L299.278 204.5L299.167 206.056L299.583 208L300.111 209.889L300.028 210.694L300.028 211.222L299 212L299.778 212.722L300.306 212.75L301.111 212.944L301.972 212.972L302.944 213L305 213L304.417 215.056L304.083 216.944L304.028 217.944L304 220L306 221L306 222L310 222L310 220L309 219L310.472 218.722L311.75 218.139L312.222 217.972L313 217L311.556 216.583L311 216.917L309 218L309.75 216.5L310.194 215.944L311.333 214L312.111 212L312.611 210L312.917 208.056L312.972 207.5L313 206L314 208L314.75 207.222L314.833 206.694L315.167 205.889L315.361 204.972L315.611 204L315.917 202.056L315.972 201.056L316 199L317.167 198.639L317.417 198.278L317.944 197.667L318.583 195.972L318.778 195L318.917 194L318.917 192L318.583 190L317.889 188.111L317.417 187.333L316.389 186.361L315 186L315 183.944L314.917 182L314.75 181L314.5 180L314.083 179L313.583 178L312.333 176L311.694 175L311.083 174L310.056 172L309.639 171L309.194 170L308.472 168L308.25 167.056L308.028 165.5L308 164L305 164L304.917 161.944L304.611 160L304.389 159L304.056 157L303.944 156L303.583 154L303.306 153L302.611 151L301.722 149L300.528 147.111L298.972 145.722L297.5 145.111L296 145L295.944 143L295.75 142L295.722 141.5L295 140L293.972 140.667L293.194 141.333L292 142L291 140L291 139L288.944 139.583L287.944 139.778L287 139.917L285.056 140L284.056 140L282 140L281.722 138.5L281.056 137.056L280.556 136.333L279.417 135.361L278 135L278.417 133.861L278.083 133.667L277 133L277 129L275.611 128.639L274.583 127.667L273.722 125.972L273.222 124.056L273.028 122.5L273 121L271.75 121.056L270.639 120.472L270 119.889L268.667 118.389L267.417 116.778L266.917 115.972L266.278 114.5L266 113L267 115L268 115L269 113L269 112L273 112L272.222 110.861L271.694 110.667L270.889 110.278L270.028 110.111L268.5 110L267 110L267 112L263 112L263.583 110L263.778 109L263.917 108.5L264 107L259 107L258.472 105.611L258.139 105.278L257.222 104.361L256 104z"/>
<path style="fill:#cbc4c2; stroke:none;" d="M276 104L277 105L276 104z"/>
<path style="fill:#030202; stroke:none;" d="M156 109L154.861 108.583L154.667 108.917L154 110L152.5 109.556L151.944 109.75L150 110.5L148.083 111.861L147.222 112.611L146.389 113.278L144.778 114.444L143.917 114.917L142.056 115.583L140.5 115.917L139 116L138.583 117.444L138.25 118.556L138 120L139.444 120.722L140 120.75L142 121L142 119L141 118L142.5 118.667L143.056 118.972L145 119.611L146 119.639L147 119.472L149 118.611L150 118.056L152 117.056L153 116.639L155 115.75L156 115.222L158 114.25L159 113.833L161 112.917L162.944 111.806L163.944 111.194L164.5 110.75L166 110L165.222 109.306L163.889 109.389L162.972 109.722L161.056 110.806L160.5 111.25L159 112L159.333 110.5L159.639 109.944L160.667 108.111L161.361 107.306L161.75 106.778L163 106L162.222 105.278L161.694 105.25L160.889 105.083L159.028 105.333L158.111 105.722L157.333 106.278L156.361 107.528L156 109z"/>
<path style="fill:#815e5d; stroke:none;" d="M166 105L167 106L166 105z"/>
<path style="fill:#cbc4c2; stroke:none;" d="M187 105L188 106L187 105M277 105L278 106L277 105M278 106L279 107L278 106z"/>
<path style="fill:#815e5d; stroke:none;" d="M145 107L146 108L145 107z"/>
<path style="fill:#a28d8c; stroke:none;" d="M162.333 107.667L162.333 108.333L162.667 108.333L162.667 108L162.333 107.667z"/>
<path style="fill:#815e5d; stroke:none;" d="M183.667 107.333L183.667 107.667L184.333 107.667L184 107.333L183.667 107.333z"/>
<path style="fill:#a28d8c; stroke:none;" d="M131 108L132 109L131 108z"/>
<path style="fill:#815e5d; stroke:none;" d="M142.667 108.333L142.667 108.667L143.333 108.667L143 108.333L142.667 108.333z"/>
<path style="fill:#633d3d; stroke:none;" d="M160 108L159.306 109.472L159.361 109.944L159.333 110.722L159.861 111.639L161 112L160.778 110.361L160.778 109.667L160.611 109.083L160.667 108.694L160 108z"/>
<path style="fill:#815e5d; stroke:none;" d="M161 108L160 110L160 111L161.361 110.639L161.611 110.306L162.056 109.778L162.028 108.75L161 108z"/>
<path style="fill:#cbc4c2; stroke:none;" d="M183 108L183.722 108.722L184.25 108.75L186 109L185.278 108.278L184.75 108.25L183 108z"/>
<path style="fill:#a28d8c; stroke:none;" d="M279 108L280 109L279 108z"/>
<path style="fill:#030202; stroke:none;" d="M194 109L193 110L193 112L191.5 111.028L191 110.861L189.5 110.278L188 110L187.417 112.056L187.083 113.944L187 116L185.833 115.639L185.556 115.972L184.944 116.361L183.75 117.75L182.472 118.917L181 120L181.5 118.5L181.806 118L182.5 116.5L183 115L181.5 115.361L179.972 116.333L179.111 117.111L177.722 118.944L177.111 120.5L177 122L175.5 122.333L174.944 122.639L174 123.056L172.5 123.944L171 125L171.444 126.5L172.028 128L172.194 128.5L173 130L171.611 130.111L170.667 130.667L170.361 130.861L170 132L168 131.417L167 131.222L166.5 131.083L165 131L165 129L164 128L164.972 127.222L165.472 125.889L165.472 124.056L164.972 122.5L164 121L162.5 121.778L161.944 122.306L160.028 123.806L158.333 124.611L157.361 124.278L157 123L155.556 123.417L154.444 123.75L153 124L154 122L155 122L154.833 120.556L154.833 119.444L155 118L153.5 118.083L151.944 118.472L150 119.25L149 119.778L148 120.25L146 121.444L144 122.75L143 123.333L141 124L139 124L137.056 123.528L136.5 123.306L135 123L134.778 124.5L134.667 125.056L134.389 127L134.111 129L133.917 130L133.5 132L133.5 134L134.028 135.944L134.194 136.5L135 138L133.861 138.306L133.667 138.667L133 140L134.222 141.5L135.111 143.056L135.806 144.944L136.167 145.944L136.25 146.5L137 148L135.861 148.778L135.667 149.306L135.278 150.111L135.028 151.944L135 152.944L135 155L136 155L137 153L137.778 153.722L138.306 153.75L139.056 153.944L139.972 153.972L142 154L142.333 155.5L142.639 156.056L143.083 157.056L144.111 158.944L144.472 159.5L145 161L147 161L148 160L148 156L149.444 156.472L150 156.333L152 156L152 160L156 160L157.417 158.25L157.806 157.722L159 157L159.111 158.389L159.722 159.333L160.278 159.667L161.528 159.972L163 160L162.278 161.139L161.75 161.333L160 162L160.083 163.5L160.5 164.972L161.389 166.556L161.944 167.333L162.306 167.75L163 169L161.528 169.444L160.167 170.083L158.611 171L157.778 171.444L156.917 171.833L155.056 172.194L153.5 172.167L152 172L152.361 173.167L152.722 173.444L153.306 174.056L154.028 174.583L155.611 175.889L156.389 176.639L158.083 178.194L159.944 179.722L160.5 180.222L162 181L162.444 179.5L162.667 178.944L163.417 177L164.389 175L165.361 173.056L165.889 171.5L166 170L167.5 170.667L168.056 170.972L170 171.722L172 172.194L172.944 172.389L174.5 172.75L176 173L175.667 174.417L175.417 174.833L175.056 175.639L174.417 176.889L174.056 177.361L173.917 177.667L173 178L173.694 179.056L174.083 179.361L174.667 179.944L175.75 180.667L177 181L176.361 182.5L176.472 183L176.472 184L177 186L175.833 185.222L175.583 184.694L175.056 183.944L174.444 182.5L174 181L172.194 181.917L171.444 182.5L170.583 184.083L170.389 186L170.417 188L170.417 190L170.472 191L170.889 193L171.611 194.972L172.056 195.889L172.639 196.694L172.944 197.222L174 198L174.833 196.5L175.056 195.944L176.083 194L176.722 193.056L178.167 191.556L179.528 190.944L181 191L181.111 189.5L181.639 187.944L182.111 187L183.361 185.111L184.167 184.306L184.583 183.778L186 183L185.917 184.5L185.806 185.056L185.667 186.056L185.306 187.917L185.083 188.722L184.778 189.528L184 191L185 192L187 191L187.361 189.5L188.333 187.944L189.111 187L190.972 185.083L191.917 184.222L193.611 182.722L194.333 182.111L195.167 181.639L195.583 181.333L197 181L197 175L198.472 174.972L199.722 174.667L200.278 174.333L200.889 173.389L201 172L198.944 172.583L197.056 172.917L196.056 172.972L194 173L193.917 171.5L193.778 170.944L193.611 169.944L193.389 169L193.083 167L193.028 166L193 164.056L193 162L194.472 161.889L195.833 161.278L197.333 160L198.167 159.278L198.583 158.778L200 158L200.111 156.5L200.306 155.944L200.611 154.944L201.389 153.056L201.667 152.5L202 151L200 152L200.778 150.528L202.056 149.25L202.528 148.778L204 148L203.639 149.139L203.972 149.361L204.389 149.833L206.028 150.583L208 151.389L209.944 151.889L210.944 151.972L213 152L213.806 150.5L213.972 150L214.556 148.5L215 147L219 147L219.778 145.75L220.306 145.361L222 144.083L223.667 143.028L224.278 142.444L224.639 142.167L225 141L225.722 142.5L225.778 143.056L226.111 144.917L226.278 146.556L226.417 147.333L226.444 147.75L227 149L225.833 149.361L225.556 149.694L224.444 150.806L224.167 151.25L223 152L223 154.056L223 155.056L223.083 157L223.417 159L224.056 160.889L224.583 161.694L224.833 162.222L226 163L225.5 165.056L225.389 167L225.417 169L225.389 170L225.556 172L226.167 174L226.528 174.944L226.917 176.5L227 178L232 178L232.083 176.5L232.222 175.944L232.528 174L232.556 173L232.389 171L232.417 169L232.75 168L234.111 166.111L235.028 165.333L236 164.722L237 164.333L239 163.917L241 163.306L242 162.778L244 161.611L245 161.111L246.944 160.417L247.5 160.25L249 160L248.222 159.167L247.694 158.917L246.083 157.75L245.306 156.944L244.778 156.472L244 155L245.5 154.472L246.944 153.556L247.694 152.806L248.222 152.417L249 151L247.5 151.083L247 151.222L246 151.417L244 152L244.583 149.944L244.889 148L244.861 147L244.694 146L243.972 144.056L243.667 143.5L243 142L242.278 142.778L242.25 143.306L242.056 144.111L242.028 145.028L242 146L242 148L242 150L242 155L241 156L239.5 155.917L238.944 155.778L238 155.611L236.5 155.25L235 155L235.083 156.5L235.222 157.056L235.611 158.944L235.778 159.944L235.917 160.5L236 162L234.556 162.417L233.444 162.75L232 163L231.417 165.056L231.083 167L231.028 167.944L231 168.944L231 171L229.861 169.5L229.278 167.944L228.944 166L228.611 164L228.389 163L228.111 161L228.333 159L229.222 157L229.778 156L230.306 155.056L230.889 153.5L231 152L229.861 151.222L229.667 150.694L229.25 149.889L229.028 148.972L228.611 147L228.389 146L228.083 144L228.083 142L228.5 140L229.444 138.111L230.583 136.778L232 136L232.111 133.944L232.306 132.944L233.111 131L234.417 129L236.083 127.083L238 125.5L239.944 124.5L240.944 124.25L243 124L243.833 122.5L244.611 121L244.833 120.5L246 119L244.75 117.25L244.389 116.722L243 116L242.528 117.444L242.667 118L243 120L239 120L239.667 118.556L240.333 117.444L241 116L239.5 116.111L237.972 116.639L237.083 117.111L235.389 118.333L234.611 119L233.806 119.694L232.306 121.167L231.361 122.528L231 124L229.5 124.083L228.944 124.222L227.944 124.389L227 124.611L225.056 124.917L224.056 124.972L222 125L222 127L223 128L220.944 127.417L219 127.167L217 127.472L216 127.833L215 128.194L214 128.611L212 129.278L211 129.5L210 129.556L209 129.5L207 128.972L206.028 128.583L205.083 128.111L203.472 127.056L203.083 126.694L202 126L200 128L199 128L198.25 126.5L197.778 125.944L196.556 124L195.917 122.056L196 120L192 120L192.083 121.5L192.222 122.056L192.611 124L193.028 125.889L193.306 126.667L193.667 127.278L194.278 127.667L196 128L195.333 129.25L195.028 129.667L194.306 131.167L194.111 131.583L194 133L196.056 133.583L197.972 133.806L198.889 133.694L200.222 133.139L201 132L202.472 132.528L203.75 133.472L204.944 134.694L205.556 135.056L205.833 135.361L207 135L206.222 136.472L205.694 136.944L204.944 137.722L203.5 138.639L202 139L202.139 140.25L202.083 140.639L201.472 141.889L200.417 142.667L199 143L201 142L200.25 141.167L199.806 140.917L198.694 139.75L198.361 139.389L198 138L196.5 138.278L195.944 138.472L194 139.167L193 139.528L192.056 139.75L190.5 139.972L189 140L188.972 137.944L188.917 136.944L188.611 135L188.361 134L188.139 133L187.583 131L187.25 130L187.083 129L186.944 128L187.361 126L188.361 124L188.917 123L189.667 121L189.833 120.056L189.722 118.5L189 117L189.972 116.278L190.167 115.75L191 114L195 114L195.667 112.75L196.389 111.611L196.667 111.25L197 110L196 109L194 109z"/>
<path style="fill:#cbc4c2; stroke:none;" d="M280 109L281 110L280 109z"/>
<path style="fill:#815e5d; stroke:none;" d="M184 110L185 111L184 110z"/>
<path style="fill:#a28d8c; stroke:none;" d="M129.333 111.667L129.333 112.333L129.667 112.333L129.667 112L129.333 111.667z"/>
<path style="fill:#633d3d; stroke:none;" d="M268 113L268.111 114.5L268.694 116.056L269.889 118L271.278 120L271.889 121L272.722 123L273.194 125L273.389 125.944L273.75 127.5L274 129L283 129L284 128L283.944 125.944L283.833 124L283.778 123L283.861 121.056L283.944 120.5L284 119L282.861 118.278L282.667 117.75L282 116L280.5 115.722L278.944 115.083L278 114.583L276 113.417L274 112.5L273 112.25L271.056 112.083L269.5 112.278L268 113z"/>
<path style="fill:#cbc4c2; stroke:none;" d="M282 112L283 113L282 112z"/>
<path style="fill:#815e5d; stroke:none;" d="M129 113L128.333 114.5L128.028 115.056L127.306 117L127.111 118L127.028 118.944L127 119.944L127 122L128.139 121.222L128.361 120.694L129.167 119.083L129.639 118.306L129.861 117.778L131 117L130.556 115.528L129.972 114.25L129.806 113.778L129 113z"/>
<path style="fill:#030202; stroke:none;" d="M209 115L207.5 114.278L207 114.25L206 114.056L204 114L204.167 115.194L204.167 115.972L204 117L206.056 117.028L207.056 117.083L209 117.389L211 117.806L213 118.194L214 118.417L215.944 119L216.944 119.333L217.5 119.556L219 120L219 116L217.5 115.917L217 115.778L216 115.583L214 115L214 117L212.556 116.278L212 116.25L210 116L211 114L212 114L211.25 113.306L210.222 113.333L209.694 113.694L209.361 113.861L209 115z"/>
<path style="fill:#a28d8c; stroke:none;" d="M266 113L266.25 115.028L266.5 115.972L267.417 117.611L268.028 118.389L269.361 119.972L270.167 120.722L270.583 121.222L272 122L271.722 120.5L271.056 118.944L270.5 118L269 116.028L268.25 115.111L267.472 114.306L267.083 113.778L266 113M128 114L129 115L128 114z"/>
<path style="fill:#cbc4c2; stroke:none;" d="M284 114L285 115L284 114z"/>
<path style="fill:#a28d8c; stroke:none;" d="M263.667 115.333L263.667 115.667L264.333 115.667L264.333 115.333L263.667 115.333z"/>
<path style="fill:#815e5d; stroke:none;" d="M213 116L214 117L213 116M263 118L263.056 120L263.25 121L263.278 121.5L264 123L264.722 122.222L264.722 121.694L264.833 120.917L264.333 119.306L264.139 118.778L263 118M210 119L210 120L212 121L212 119L210 119z"/>
<path style="fill:#a28d8c; stroke:none;" d="M212 119L213 120L212 119z"/>
<path style="fill:#815e5d; stroke:none;" d="M213.333 119.667L213.333 120.333L213.667 120.333L213.667 120L213.333 119.667z"/>
<path style="fill:#a28d8c; stroke:none;" d="M206 121L207 122L206 121z"/>
<path style="fill:#cbc4c2; stroke:none;" d="M292 121L293 122L292 121z"/>
<path style="fill:#a28d8c; stroke:none;" d="M127.333 122.667L127.333 123L127.667 123.333L127.667 122.667L127.333 122.667M158 123L158 126L160 125L159 123L158 123z"/>
<path style="fill:#cbc4c2; stroke:none;" d="M159 123L160 124L159 123M290 123L289.333 124.25L288.611 125.389L288.333 125.75L288 127L289.5 127.75L290.056 128.222L291.028 128.889L292.694 130.333L293.222 130.75L294 132L294.694 131.222L294.611 129.889L293.722 128L292.528 126.056L291.944 124.5L292 123L290 123z"/>
<path style="fill:#815e5d; stroke:none;" d="M284 124L284 127L285.139 126.278L285.333 125.75L286 124L284 124z"/>
<path style="fill:#633d3d; stroke:none;" d="M232.667 125.333L232.667 125.667L233.333 125.667L233.333 125.333L232.667 125.333z"/>
<path style="fill:#a28d8c; stroke:none;" d="M272 126L271.278 127.444L271.25 128L271 130L272.139 129.639L272.333 129.278L272.833 128L272.722 127.278L272.722 126.778L272 126M156 127L157 128L156 127z"/>
<path style="fill:#815e5d; stroke:none;" d="M177 127L177.111 128.472L177.667 129.722L178.611 130.639L180 131L179.306 129.528L178.361 128.25L178.056 127.778L177 127z"/>
<path style="fill:#a28d8c; stroke:none;" d="M127 128L127 131L127.694 130.25L127.694 129.806L127.694 128.75L127 128M127 132L127 135L127.694 134.25L127.694 133.806L127.694 132.75L127 132z"/>
<path style="fill:#815e5d; stroke:none;" d="M189 132L189.361 133.389L190.278 134.333L190.611 134.639L192 135L190.75 133.25L190.389 132.722L189 132z"/>
<path style="fill:#cbc4c2; stroke:none;" d="M295.333 132.667L295.333 133.333L295.667 133.333L295.667 133L295.333 132.667z"/>
<path style="fill:#633d3d; stroke:none;" d="M173 136L174.028 135.333L174.806 134.667L176 134L175.25 133.306L174.222 133.389L173.694 133.694L173.111 134.611L173 136z"/>
<path style="fill:#815e5d; stroke:none;" d="M174 134L173.222 135.417L172.722 135.833L171.972 136.667L170.5 138.167L169.528 139.528L169 141L171 142.333L171.556 142.694L173 143L173.778 141.778L174.306 141.444L175.056 140.889L176.5 140.278L178 140L178 134L174 134z"/>
<path style="fill:#633d3d; stroke:none;" d="M178 134L178 138L178.722 137.222L178.889 136L178.722 135.278L178.722 134.778L178 134M212.333 135.667L212.333 136.333L212.667 136.333L212.667 136L212.333 135.667z"/>
<path style="fill:#cbc4c2; stroke:none;" d="M296.333 136.667L296.333 137L296.667 137.333L296.667 137L296.333 136.667z"/>
<path style="fill:#a28d8c; stroke:none;" d="M126 137L127 138L126 137z"/>
<path style="fill:#633d3d; stroke:none;" d="M169.333 138.667L169.333 139.333L169.667 139.333L169.667 138.667L169.333 138.667M165 140L165 142.056L164.972 143.056L164.917 144L164.583 145.944L164 148L166 148L165.278 149.444L165.25 150L165 152L166.417 151.222L166.833 150.694L167.639 149.889L168.972 148L169.583 147L170.472 145L170.639 143.056L170.306 142.056L169 140L167.556 140.167L166.444 140.167L165 140z"/>
<path style="fill:#815e5d; stroke:none;" d="M238.667 140.333L239 140.667L239.333 140.667L239.333 140.333L238.667 140.333z"/>
<path style="fill:#cbc4c2; stroke:none;" d="M298 140L299 141L298 140z"/>
<path style="fill:#a28d8c; stroke:none;" d="M127 141L128 142L127 141z"/>
<path style="fill:#815e5d; stroke:none;" d="M178 141L179 142L178 141M225.333 141.667L225.333 142.333L225.667 142.333L225.667 142L225.333 141.667z"/>
<path style="fill:#633d3d; stroke:none;" d="M182 142L182 144L183 145L181.5 145.028L179.944 145.222L179 145.417L177.056 146.056L175.5 146.833L174 148L174.278 149.472L174.944 150.806L176.25 152.056L177.083 152.5L178.944 152.917L180.5 153L182 153L179.944 154.139L178.944 154.528L177 154.611L176 154.361L174.056 153.611L173.056 153.306L172.5 153.111L171 153L170.278 154.5L170.25 155.056L170.056 156.056L170.028 156.944L170 157.944L170 160L171.5 159.889L172.056 159.694L173.056 159.389L175 158.611L176 158.306L177.944 158.028L178.5 158L180 158L180.333 159.806L180.722 160.556L182.111 161.417L184 161.417L185.889 160.5L187.361 158.917L187.889 158.028L188.556 156.5L189 155L187.5 154.917L187 154.778L186 154.583L184 154L185.5 153.25L186.056 153.139L188 152.444L190 151.833L191 151.694L193 151.778L193.944 151.861L194.944 151.722L195.5 151.722L197 151L196.833 149.167L196.778 148.333L196.861 146.833L196.944 146.417L197 145L195.5 144.194L194.944 144.028L193.944 143.667L192 143.222L191 143.083L189 143.083L187.028 143.278L186.083 143.306L184.444 142.917L183.667 142.583L183.25 142.333L182 142z"/>
<path style="fill:#a28d8c; stroke:none;" d="M128.333 143.667L128.333 144.333L128.667 144.333L128.667 144L128.333 143.667z"/>
<path style="fill:#633d3d; stroke:none;" d="M158 143L157 145L159 145L159 143L158 143M199 147L200.389 146.639L200.722 146.333L201.639 145.389L202 144L200.611 144.111L200.278 144.333L199.667 144.667L199.111 145.611L199 147M172 145L171.5 146.5L170.806 148L170.5 148.5L170 150L171.25 149.25L171.639 148.778L172.333 148.111L173.361 146.667L173.667 146.25L174 145L172 145z"/>
<path style="fill:#cbc4c2; stroke:none;" d="M300.333 145.667L300.333 146L300.667 146.333L300.667 145.667L300.333 145.667z"/>
<path style="fill:#815e5d; stroke:none;" d="M129 146L130 147L129 146M269 149L269 151.056L269.028 152.056L269.111 153L269.722 155L270.306 156L271.778 158L272.528 158.972L273.167 159.917L274.361 161.611L275.361 163.167L275.667 163.583L276 165L282 165L281.722 163.528L281.111 162.333L280.556 161.972L280.222 161.639L279 162L279.083 160.5L279.222 159.944L279.389 159L279.75 157.5L280 156L277.944 156.556L276.944 156.667L276.028 156.583L274.333 155.722L273.361 154.472L273 153L274.583 154.75L274.972 155.278L276 156L276.639 154.5L276.528 153.944L276.556 153L276.25 151.5L276 150L274.806 150.167L274.028 150.167L273 150L274 148L275 148L274.222 147.306L273.694 147.361L272.889 147.361L271.056 148.028L270.5 148.333L269 149z"/>
<path style="fill:#a28d8c; stroke:none;" d="M301 148L302 149L301 148z"/>
<path style="fill:#815e5d; stroke:none;" d="M130 149L131 150L130 149z"/>
<path style="fill:#a28d8c; stroke:none;" d="M302.333 149.667L302.333 150.333L302.667 150.333L302.667 150L302.333 149.667z"/>
<path style="fill:#633d3d; stroke:none;" d="M168 151L168 154L168.694 153.25L168.694 152.806L168.694 151.75L168 151z"/>
<path style="fill:#815e5d; stroke:none;" d="M221.333 151.667L221.333 152.333L221.667 152.333L221.667 151.667L221.333 151.667z"/>
<path style="fill:#a28d8c; stroke:none;" d="M303.333 152.667L303.333 153.333L303.667 153.333L303.667 152.667L303.333 152.667z"/>
<path style="fill:#815e5d; stroke:none;" d="M167 153L168 154L167 153M262 153L261 154L261 156L262.139 155.639L262.306 155.306L262.667 154.778L262.694 153.75L262 153z"/>
<path style="fill:#633d3d; stroke:none;" d="M197.333 154.667L197.333 155L197.667 155.333L197.667 154.667L197.333 154.667z"/>
<path style="fill:#815e5d; stroke:none;" d="M133 155L134 156L133 155z"/>
<path style="fill:#633d3d; stroke:none;" d="M195.333 155.667L195.333 156L195.667 156.333L195.667 155.667L195.333 155.667z"/>
<path style="fill:#815e5d; stroke:none;" d="M249 156L249 157L251 158L249.861 159.5L249.667 160L249.111 161.5L249 163L251 163L252 162L252 163.5L251.889 165.028L251.333 166.667L250.389 167.639L249 168L249 169L251 170L250.278 170.778L250.25 171.25L250.056 172.056L250 174L251.472 173.056L252.278 172.694L253.972 172.528L256 173L255.639 171.611L255.333 171.278L254.389 170.361L253 170L254.972 168.139L255.806 167.472L257.167 166.639L257.778 166.278L258.417 165.917L258.778 165.639L260 165L259.278 166.5L259.25 167L259.056 168L259 170L260 170L261 168L261.778 169.5L262.278 170.056L263.722 171.972L264.944 173.667L265.556 174.278L265.833 174.639L267 175L266 173L267 173L268.472 173.778L269.722 175.111L270.667 177L270.889 178L270.889 180L270.389 181.944L269.667 183.5L269 185L270.5 185.25L271.056 185.389L273 185.694L274 185.722L276 185.639L277 185.722L278.889 186.472L280.222 187.583L281 189L281.667 188.222L281.611 187.694L281.778 186.944L281.778 186.028L282 184L280.528 183.639L279.194 182.667L277.917 180.972L277.417 180L276.694 178.056L276.25 176.5L276 175L274.75 175.056L273.556 174.528L272.778 174.028L271.917 173.333L270.972 172.611L269.111 170.972L268.306 170.028L267.778 169.5L267 168L264 168L263.639 166.5L263.306 165.944L262.194 164.056L261.75 163.5L261 162L262.25 161.667L262.639 161.361L263.889 160.333L264.361 159.639L264.667 159.25L265 158L263.556 158.25L262.444 158.583L261 159L261 157L260 156L258.5 156.25L256.944 156.528L256 156.556L255 156.528L254 156.361L252.056 156.083L250.5 156L249 156z"/>
<path style="fill:#a28d8c; stroke:none;" d="M304 156L304 160L304.722 159.222L304.889 158L304.722 157.278L304.722 156.778L304 156z"/>
<path style="fill:#815e5d; stroke:none;" d="M134 157L135 158L134 157M191 157L192 158L191 157M135 159L136 160L135 159z"/>
<path style="fill:#633d3d; stroke:none;" d="M239 159L239 161L240 161L241 159L239 159z"/>
<path style="fill:#a28d8c; stroke:none;" d="M136 161L137 162L136 161z"/>
<path style="fill:#815e5d; stroke:none;" d="M264 161L264.361 162.389L265.333 163.333L266.056 163.667L267.5 163.972L269 164L268.222 162.611L267.694 162.278L266.944 161.667L265.5 161.111L264 161M137 162L138 163L137 162M242 162L241 163L241 165L242.139 164.639L242.306 164.306L242.667 163.778L242.694 162.75L242 162z"/>
<path style="fill:#a28d8c; stroke:none;" d="M261 162L261.361 163.5L261.694 164.056L262.889 165.889L264.333 167.278L265.583 167.889L267 168L266.556 166.5L265.889 164.972L265.361 164.111L263.944 162.722L263.028 162.333L261 162M305 163L306 164L305 163z"/>
<path style="fill:#815e5d; stroke:none;" d="M138 164L139 165L138 164z"/>
<path style="fill:#a28d8c; stroke:none;" d="M233 169L234.5 168.639L235.056 168.306L236.056 167.75L237.944 166.472L238.944 165.917L239.5 165.528L241 165L240.222 164.278L239.694 164.25L238.889 164.056L237 164.111L236.028 164.333L235.111 164.722L233.722 166.056L233.333 166.972L233 169z"/>
<path style="fill:#633d3d; stroke:none;" d="M171 166L171.111 167.472L171.667 168.722L172.611 169.639L174 170L173.639 168.528L172.722 167.25L172.389 166.778L171 166z"/>
<path style="fill:#815e5d; stroke:none;" d="M141 167L142 168L141 167z"/>
<path style="fill:#633d3d; stroke:none;" d="M232 167L232 172L232.722 171.222L232.75 170.694L232.917 169.083L232.75 168.306L232.722 167.778L232 167z"/>
<path style="fill:#a28d8c; stroke:none;" d="M308.333 167.667L308.333 168L308.667 168.333L308.667 167.667L308.333 167.667z"/>
<path style="fill:#815e5d; stroke:none;" d="M188.667 168.333L188.667 168.667L189.333 168.667L189.333 168.333L188.667 168.333M274 168L274.056 170L274.25 171L274.278 171.5L275 173L276.5 172.472L277 172.139L278.5 171.222L280 170L280.361 171.417L280.722 171.833L281.333 172.667L282.083 173.389L283.667 175.028L284.639 176.5L285 178L286 178L288 177L288.528 178.5L288.889 179.056L289.417 180.056L290.611 181.944L290.944 182.5L292 184L292.722 183.278L292.75 182.75L293 181L294.194 181.667L294.972 182.333L296 183L296.417 181.556L296.75 180.444L297 179L295.5 178.556L294.944 178.333L293 177.583L291.111 176.5L289.722 174.972L289.361 174.472L289 173L290.25 173.361L290.639 173.028L291.333 172.667L292.306 171.472L293 170L291.5 169.75L290.944 169.611L289.056 169.278L288.056 169.333L287.5 169.306L286 170L286.972 171.417L287.389 172.222L287.667 172.583L288 174L287 172L286.278 172.722L286.25 173.25L286 175L284.917 173.583L283.806 172.333L282.361 170.806L280.778 169.306L279.917 168.722L278.972 168.333L277.056 168.028L276.056 168L274 168z"/>
<path style="fill:#a28d8c; stroke:none;" d="M142 169L143 170L142 169z"/>
<path style="fill:#815e5d; stroke:none;" d="M233 169L233.083 171.056L233.389 172.944L233.75 174.5L234 176L235.222 175.639L236.139 174.722L236.472 174.389L237 173L235.833 171.528L235 170.278L234.444 169.722L234.167 169.361L233 169z"/>
<path style="fill:#a28d8c; stroke:none;" d="M248 169L248 176L250 176L250.028 173.944L250.083 172.944L250.417 171.056L251 169L248 169z"/>
<path style="fill:#030202; stroke:none;" d="M217 170L215.611 171.5L214.583 173.056L214.111 173.944L213.444 175.5L213 177L214 178.472L214.25 178.944L214.833 179.722L215.778 180.639L217 181L216.5 179.5L216.194 178.944L215.833 178L215.278 176.5L215 175L216.389 174.639L217.333 173.667L217.833 172.083L217.722 171.306L217.722 170.778L217 170z"/>
<path style="fill:#a28d8c; stroke:none;" d="M282 170L282 172L284 172L284 170L282 170z"/>
<path style="fill:#cbc4c2; stroke:none;" d="M309 170L310 171L309 170z"/>
<path style="fill:#a28d8c; stroke:none;" d="M286 171L286 172L287 174L287.722 173.278L287.75 172.75L288 171L286 171M144 172L145 173L144 172z"/>
<path style="fill:#815e5d; stroke:none;" d="M206 172L204.278 173.028L203.667 173.611L203.361 173.833L203 175L204.472 174.972L205.722 174.667L206.25 174.306L206.611 173.778L206.694 172.75L206 172M222 172L222 174L223 174L224 172L222 172z"/>
<path style="fill:#cbc4c2; stroke:none;" d="M236 172L237 173L236 172z"/>
<path style="fill:#a28d8c; stroke:none;" d="M310.333 172.667L310.333 173L310.667 173.333L310.667 172.667L310.333 172.667z"/>
<path style="fill:#815e5d; stroke:none;" d="M145 173L146 174L145 173M186 173L187 174L186 173z"/>
<path style="fill:#633d3d; stroke:none;" d="M228 173L228 176L228.694 175.25L228.694 174.806L228.694 173.75L228 173z"/>
<path style="fill:#815e5d; stroke:none;" d="M146 174L147 175L146 174z"/>
<path style="fill:#633d3d; stroke:none;" d="M188 174L188.111 175.472L188.667 176.722L189.611 177.639L191 178L190.833 176.556L190.833 175.444L191 174L188 174z"/>
<path style="fill:#815e5d; stroke:none;" d="M266 176L266 178L267 179L265.611 179.111L264.667 179.667L264.361 179.861L264 181L263 180L261 180L260 182L260 183L258 181.833L257.444 181.472L256 181L256.306 182.139L256.667 182.333L258 183L257.278 184.444L257.25 185L257 187L258.5 186.667L259 186.389L260.5 185.667L262 185L262.361 186.389L263.333 187.417L264.111 187.889L265.944 188.583L267.5 188.917L269 189L268.917 187.5L268.528 185.944L268.167 185L267.833 184L267.361 182.028L267.389 181.083L268 179.389L268.694 177.833L268.889 177.417L269 176L266 176z"/>
<path style="fill:#a28d8c; stroke:none;" d="M303 176L303.111 177.472L303.667 178.722L304.611 179.639L306 180L305.722 178.528L305.111 177.278L304.222 176.361L303 176M312 176L313 177L312 176M286 177L286.111 178.5L286.639 180.056L287.083 181L288.194 183L289.417 184.889L290.194 185.694L290.583 186.222L292 187L291.972 185.5L291.75 183.944L291.5 183L290.583 181L289.389 179.056L289.056 178.5L288 177L286 177z"/>
<path style="fill:#815e5d; stroke:none;" d="M163 178L163 182L163.722 181.222L163.722 180.722L163.889 180L163.722 178.778L163 178M228 178L227.583 179.444L227.25 180.556L227 182L228.083 181.333L229.222 180.611L230.528 180.111L232 180L231.222 178.861L230.75 178.667L229.472 178.111L228 178M173 180L174 181L173 180z"/>
<path style="fill:#a28d8c; stroke:none;" d="M228 180L228 182.056L228.028 183.056L228.306 185L229.111 187L230.417 189L231.222 190L232.972 191.944L233.944 192.944L236 195L232 195L231.472 197.056L231.25 199L231.25 200L231.167 201L231.139 202L231.111 204L231.222 204.944L231.417 205.944L232 208L233 208L233 206L234 207.75L234.222 208.278L235 209L236.222 208.222L236.583 207.694L237.194 206.889L238.25 205L238.833 204L239.917 202L240.694 200.056L240.889 199.056L241 197L244 197L244 190L242.611 189.222L242.25 188.694L241.556 187.917L241 187.056L239.694 185.417L238.889 184.722L237 183.528L235.111 182.444L234.306 181.75L233.778 181.389L233 180L228 180z"/>
<path style="fill:#815e5d; stroke:none;" d="M233 180L233.361 181.389L234.333 182.444L235.972 183.556L236.5 183.833L238 185L239.472 184.472L239.944 184.083L240.722 183.556L241.639 182.417L242 181L240.5 181.333L238.944 181.444L238 181.417L236.056 181.083L234.5 180.583L233 180z"/>
<path style="fill:#a28d8c; stroke:none;" d="M293 181L293 184L294.139 183.278L294.333 182.75L295 181L293 181M315 181L315 186L315.722 185.222L315.75 184.694L315.917 183.917L315.75 182.306L315.722 181.778L315 181z"/>
<path style="fill:#815e5d; stroke:none;" d="M154 182L155 183L154 182M155 183L156 184L155 183z"/>
<path style="fill:#a28d8c; stroke:none;" d="M281 185L281.25 186.5L281.611 188L281.778 188.944L281.917 189.5L282 191L282.75 190.222L282.833 189.694L283.139 188.889L283.361 187.056L283.472 186.5L283 185L281 185z"/>
<path style="fill:#cbc4c2; stroke:none;" d="M316 185L317 186L316 185z"/>
<path style="fill:#815e5d; stroke:none;" d="M158 186L159 187L158 186M283 188L284.389 187.889L285.333 187.333L285.639 187.139L286 186L284.25 186.667L283.722 186.861L283 188M290 186L289.694 188.056L289.611 189L289.667 190.5L290 192L291.75 192.667L292.278 192.861L293 194L293.75 193.222L293.833 192.694L294.167 191.944L294.389 191.028L295 189L293 187L293 186L291.806 186.167L291.028 186.167L290 186z"/>
<path style="fill:#cbc4c2; stroke:none;" d="M317 186L318 187L317 186z"/>
<path style="fill:#815e5d; stroke:none;" d="M218 187L218 189L219 189L220 187L218 187z"/>
<path style="fill:#a28d8c; stroke:none;" d="M160 188L161 189L160 188z"/>
<path style="fill:#815e5d; stroke:none;" d="M222.333 188.667L222.333 189L222.667 189.333L222.667 189L222.333 188.667z"/>
<path style="fill:#a28d8c; stroke:none;" d="M318.333 188.667L318.333 189.333L318.667 189.333L318.667 188.667L318.333 188.667z"/>
<path style="fill:#815e5d; stroke:none;" d="M161 189L162 190L161 189M162 190L163 191L162 190M231 190L231 197L232.083 196.333L233.222 195.611L234.528 195.111L236 195L235.222 193.5L233.944 192.056L233.028 191.306L232.5 190.778L231 190M283 190L281 191.944L280 192.75L279.5 193.222L278 194L277.75 195.5L277.389 197L277.222 197.944L277.083 198.5L277 200L278.25 200.694L279.389 201.611L280.167 202.111L280.583 202.472L282 203L282.028 200.944L282.083 199.944L282.417 198.056L283 196L283.722 197.444L283.75 198L284 200L284.75 199.222L284.833 198.694L285.194 197.889L285.417 197.028L286.028 195.5L287 194L286.306 192.917L285.917 192.556L284.639 191.222L284.25 190.75L283 190M163 191L164 192L163 191M244 192L244 196L244.722 195.222L244.722 194.722L244.889 194L244.722 192.778L244 192M248.667 193.333L249 193.667L249.333 193.667L249 193.333L248.667 193.333M166 194L167 196L168 196L168 194L166 194z"/>
<path style="fill:#030202; stroke:none;" d="M229 194L228.5 196.056L228.5 197.972L228.75 198.889L229.583 200.278L230.611 200.889L232 201L231.333 199.667L231.139 199.306L230 199L229.972 196.972L229.944 196.056L229.75 195.306L229.722 194.778L229 194z"/>
<path style="fill:#633d3d; stroke:none;" d="M306 197L307.5 197.361L309.028 198.333L309.917 199.111L311.528 200.972L312.75 202.694L313 203.222L314 204L314.722 202.5L314.75 201.944L314.917 200.944L314.75 199.056L314.722 198.5L314 197L312 197L311 198L310.694 196.556L310.333 196L309 194L307.778 194.361L306.861 195.278L306.528 195.611L306 197z"/>
<path style="fill:#030202; stroke:none;" d="M184 195L184.028 197.056L184.083 198.056L184.417 199.944L185 202L185.75 201.222L185.833 200.694L186.167 199.944L186.389 199.028L187 197L185 195L184 195z"/>
<path style="fill:#633d3d; stroke:none;" d="M280 195L280 198L280.694 197.25L280.694 196.194L280.694 195.75L280 195z"/>
<path style="fill:#a28d8c; stroke:none;" d="M283 196L282.278 197.5L282.25 198.056L281.944 200L281.611 201.944L281.25 203.5L281 205L282.139 205.778L282.333 206.306L282.889 208.028L282.917 210L282.583 212L282.306 213L281.694 215L281.139 217L280.861 217.944L280.611 218.944L280 221L281.417 220.639L281.833 220.306L283.333 219.194L283.75 218.75L285 218L285 214.944L285 213L285.028 211L285.083 210L285.389 208L285.694 206L285.583 204L285.139 202L284.861 201L284.361 199.028L284.167 198.111L283.833 197.306L283.75 196.778L283 196z"/>
<path style="fill:#815e5d; stroke:none;" d="M291 196L291 201L289.556 201.417L288.444 201.75L287 202L287 203L288 205L286.611 205.778L285.667 207.111L285.111 209L285 211L285 212L285 214L285 218L283.778 218.361L282.861 219.278L282.528 219.611L282 221L284 222L283 222L283 223L285 224.167L285.556 224.528L287 225L286.417 227.056L286.25 228.056L286.194 229L286.611 231L287.389 232.944L287.694 233.944L287.889 234.5L288 236L286 234L286 233L285.278 233.778L285.278 234.306L285.167 235.111L285.306 235.972L285.861 237.5L287 239L288.028 238.333L288.806 237.667L290 237L289.5 238.333L288.333 240L287.333 242L287 243L285.833 245L285.167 245.667L284.5 246L284.167 245.667L284 244L283.278 244.778L283.25 245.306L283.056 246.056L283.028 246.972L283 249L284.5 248.5L285.056 248.194L287 247.472L289 247.056L291 246.667L292 246.333L293.944 245.444L295.5 244.944L297 245L297.694 243.5L298.056 242.944L299.111 241L300.083 239L300.611 238L301.194 237L302.306 235L302.639 234L302.806 233L302.722 231.028L302.694 230.083L303.083 228.444L303.667 227.25L304 226L302.667 225.5L302 224.833L301 223.5L301.667 223L303 223L302.222 222.278L301.75 222.25L300.944 222.056L299 222L298.75 220L298.722 219.444L298 218L297.278 218.722L297.25 219.25L297 221L296.278 219.5L296.25 218.944L296.056 217.944L296.028 217L296 215L296 213.056L296 210L295.278 210.722L295.25 211.25L295 213L294.25 211.5L294.167 210.944L293.833 209.944L293.639 209L293.361 208L292.806 206.111L292.361 205.306L292.139 204.778L291 204L291.722 202.5L291.75 201.944L291.944 200.944L291.972 200L291.944 198.111L291.75 197.306L291.722 196.778L291 196M186 198L186.25 199.5L186.611 201L186.75 201.5L187 203L188.5 202.5L190 201.806L190.5 201.5L192 201L191.639 202.389L190.667 203.361L188.972 204.222L188 204.667L186.111 205.833L185.306 206.556L184.778 206.917L184 208L185 209L187 209L187.722 207.556L187.75 207L188 205L192 205L191.75 206.5L191.611 207L191.25 208.5L191 210L193.056 209.528L194.944 209.694L195.944 210.056L198 211L197.667 209.5L197.361 208.944L196.889 207.944L196.306 207L195.028 205L194.389 204L193.806 203L192.611 201L191.389 199.056L191.056 198.5L190 197L188 197.25L187.444 197.278L186 198M241 197L240.889 198.5L240.333 200L240.139 200.5L239 202L239.333 203.5L239.389 205.056L239.306 206.889L239.417 207.667L239.694 208.278L240.278 208.667L242 209L242 208L240 207L240.722 206.278L240.75 205.75L241 204L243 204.583L244 204.778L244.5 204.917L246 205L245.833 203.5L246 203.167L247 203L246.222 201.611L245.694 201.25L244.917 200.556L243.306 199.417L242.083 198.194L241.833 197.75L241 197z"/>
<path style="fill:#a28d8c; stroke:none;" d="M274 199L274 204L274.806 203.222L274.944 202.694L275.306 201.083L275.111 200.306L275.056 199.778L274 199M316 199L315.917 201.056L315.778 202.056L315.389 204L315.083 205.944L315 208L314 206L313.25 206.778L313.167 207.306L312.833 208.111L312.639 209.028L312.361 210L311.75 212L311.333 213L310.222 214.944L309.694 215.944L309.361 216.5L309 218L310.778 217.25L311.583 217.028L311.917 216.917L313 217L311.056 218.194L310.25 218.806L309.778 219L309 220L310 221L312 221L313.222 219.5L314.139 217.944L314.583 217L314.972 216L315.583 214L315.778 213L315.917 212L316 210L316 209L316.083 207L316.389 205L316.611 204L316.889 202.028L316.75 200.306L316.722 199.778L316 199M190 201L188.278 202.417L187.667 203.222L187.361 203.583L187 205L189.028 204.389L189.944 204.111L191.278 203.361L191.889 202.389L192 201L190 201z"/>
<path style="fill:#815e5d; stroke:none;" d="M209 202L209.722 202.722L210.25 202.75L212 203L211.278 202.278L210.75 202.25L209 202M256 202L256 205L258 205L258 202L256 202M275 203L273.417 204.472L272.306 206.083L271.722 207.944L271.556 208.5L272 210L273.167 209.222L273.444 208.694L274.028 207.889L274.944 206.028L275.333 205.111L275.444 204.306L275.611 203.778L275 203z"/>
<path style="fill:#cbc4c2; stroke:none;" d="M316.333 204.667L316.333 205.333L316.667 205.333L316.667 204.667L316.333 204.667z"/>
<path style="fill:#a28d8c; stroke:none;" d="M188 205L187.75 206.5L187.472 208.056L187.5 209.944L188 212L190 212L190.806 210.5L190.972 209.944L191.333 208.944L191.778 207.056L191.917 206.5L192 205L188 205z"/>
<path style="fill:#815e5d; stroke:none;" d="M282 205L281.278 206.139L280.75 206.333L279 207L279 208.333L279.167 209L279.167 210.5L278.333 211L277 211L277.667 212.028L278.333 212.806L279 214L277.556 213.25L277.139 212.778L276.5 212.167L275.944 211.083L276 210L274 210L273 211L273.444 212.5L273.667 213.056L274.278 215L274.5 216L274.528 218L274.361 219L274.083 220.944L274.028 221.944L274 224L275.5 223.722L276.972 223.25L278.611 222.778L279.333 222.639L280.583 222.361L282 222L282 221L280 220L280.75 219.222L280.833 218.694L281.167 217.889L281.694 216L282.306 214L282.583 213L282.917 211L283 209L282.972 208.028L282.944 207.111L282.75 206.306L282.722 205.778L282 205M231 206L231.111 207.5L231.611 209L232.028 209.944L232.333 210.5L233 212L235 212L236 211L235.667 209.75L235.389 209.333L234.611 207.833L234.333 207.417L234 206L233 206.5L232.333 207L231.833 206.5L231 206M247.667 206.333L248 206.667L248.333 206.667L248 206.333L247.667 206.333z"/>
<path style="fill:#a28d8c; stroke:none;" d="M269 207L268.917 209.056L268.583 210.944L268 213L270 212.75L270.556 212.722L272 212L272 209L270.806 208.333L270.028 207.667L269 207z"/>
<path style="fill:#cbc4c2; stroke:none;" d="M316.333 207.667L316.333 208.333L316.667 208.333L316.667 207.667L316.333 207.667z"/>
<path style="fill:#030202; stroke:none;" d="M222 223L223.5 223.806L224 223.972L225.5 224.556L227 225L227.722 223.5L227.75 222.944L227.944 221.944L228.083 220L228.417 218L228.694 217L229.417 215.028L230.389 213.222L231.361 211.667L231.667 211.25L232 210L229.944 210.111L228.972 210.333L227.306 211.333L226.639 212.111L226.111 213.028L225.5 215L225.417 216L225.361 217L225.056 218.972L224.611 219.917L223.278 221.528L222.778 221.917L222 223z"/>
<path style="fill:#815e5d; stroke:none;" d="M263 213L263.778 213.75L264.306 213.861L265.111 214.25L266.028 214.583L268 215.417L269.944 216.111L270.944 216.389L273 217L272.694 215.861L272.333 215.667L271 215L272 214L272 212L270.5 212.333L268.944 212.472L268 212.528L267 212.583L265.056 212.806L264.5 212.917L263 213z"/>
<path style="fill:#a28d8c; stroke:none;" d="M229 214L228.75 215.5L228.389 217L228.25 217.5L228 219L229.444 219.722L230 219.75L232 220L232.25 218.5L232.611 217L232.778 216.056L232.917 215.5L233 214L229 214M256.333 214.667L256.333 215.333L256.667 215.333L256.667 214.667L256.333 214.667z"/>
<path style="fill:#815e5d; stroke:none;" d="M235 215L234.917 217.056L234.583 219L234.278 220L233.417 221.889L232.389 223.222L231 224L231.417 222.556L231.75 221.444L232 220L230.556 219.75L229.444 219.417L228 219L228.667 220.75L228.861 221.278L230 222L230 223L229 224L228 226L227 225L227.25 226.444L227.583 227.556L228 229L226.861 229.778L226.667 230.306L226.278 231.111L226.111 231.972L226 233.5L226 235L227.25 234.667L228.333 233.944L228.917 233.361L229.306 233.056L230 232L231.5 233L232.056 233.222L233.944 234.167L234.5 234.5L236 235L235.639 233.75L235.306 233.333L234.75 232.556L233.389 230.917L232.722 230.028L231.694 228.5L231 227L232.444 226.75L233.556 226.417L235 226L235.25 224.5L235.611 222.944L235.806 222L236.278 220L237.028 218.056L237.333 217.5L238 216L237 215L235 215M268 218L268.778 218.694L269.25 218.694L270.528 218.694L272 218L271.222 217.361L270.75 217.472L269.944 217.472L268 218M258 219L258.778 219.722L259.25 219.75L260.056 219.944L262 220L261.222 219.278L260.75 219.25L259.944 219.056L258 219M256 220L255.278 221.444L255.25 222L255 224L256.139 223.639L256.333 223.278L256.833 222L256.722 221.278L256.722 220.778L256 220z"/>
<path style="fill:#633d3d; stroke:none;" d="M297 222L296.278 223.5L296.25 224.056L296.028 225.056L295.694 226.917L295 228.556L294.611 229.333L294.333 229.75L294 231L295.972 230.667L296.806 230.278L298.056 228.889L298.5 227.972L298.889 226L298.722 224.111L298.333 223.306L298.139 222.778L297 222z"/>
<path style="fill:#a28d8c; stroke:none;" d="M305 222L306 223L305 222M300 223L301 224L300 223z"/>
<path style="fill:#815e5d; stroke:none;" d="M268 224L267.639 225.389L266.667 226.25L265.944 226.444L265.028 226.472L263 226L263 228L264 229L268 229L268.5 227.5L269.194 226L269.5 225.5L270 224L268 224z"/>
<path style="fill:#a28d8c; stroke:none;" d="M284 224L284 226.056L284 227.056L284.083 229L284.472 231L285.222 232.944L285.778 233.944L286 234.5L287 236L287.722 235.222L287.833 233.889L287.389 232L286.694 230L286.472 228L286.583 227.056L286.528 226.056L286.639 225.5L286 224L284 224M269 225L268.583 226.444L268.25 227.556L268 229L269.472 229.111L270.778 229.611L271.917 230.333L273 231L273.667 229.5L274.389 228L274.667 227.5L275 226L272.944 225.917L271.056 225.583L269 225M302 225L303 226L302 225M304 227L302.861 228.083L302.361 229.278L302.444 230.972L303 233L303.972 232.222L304.139 231.694L304.556 230.889L304.861 229.111L304.722 228.306L304.722 227.778L304 227z"/>
<path style="fill:#815e5d; stroke:none;" d="M269 229L269.694 230.056L270.083 230.361L270.667 230.944L271.75 231.667L273 232L272.472 230.611L271.556 229.667L270.806 229.333L270.417 229.111L269 229z"/>
<path style="fill:#633d3d; stroke:none;" d="M225.333 230.667L225.333 231L225.667 231.333L225.667 231L225.333 230.667z"/>
<path style="fill:#815e5d; stroke:none;" d="M258 231L258.028 232.472L258.278 233.722L258.861 234.639L260 235L259.889 233.528L259.333 232.25L259.139 231.778L258 231M249 235L248 236L248 238L249.111 237.25L249.472 236.194L249.611 235.75L249 235z"/>
<path style="fill:#a28d8c; stroke:none;" d="M288 237L287.5 238.5L286.722 240.056L286.167 241L285.639 242L284.639 243.944L284.111 245.5L284 247L285.389 246.222L285.75 245.694L286.417 244.889L287.389 243L287.889 242L288.917 240.056L289.361 239.056L289.667 238.5L290 237L288 237M300.333 237.667L300.333 238.333L300.667 238.333L300.667 238L300.333 237.667z"/>
<path style="fill:#815e5d; stroke:none;" d="M260 238L260 243L260.972 242.222L261.139 241.694L261.556 240.944L261.917 239.5L262 238L260 238M268 239L268.111 240.5L268.611 242L269.028 242.944L269.333 243.5L270 245L272 244.75L272.556 244.722L274 244L273.278 243.222L272.75 243L271 242L272.444 241.222L273.556 240.778L275 240L274.222 239.028L272.889 238.472L271.056 238.306L270.056 238.444L268 239M245 242L245 244L248 244L248 242L245 242M230 245L230.028 247.056L230.056 248L230.25 248.944L230.278 249.5L231 251L232.194 250.833L232.972 250.833L234 251L233.917 249.5L233.778 248.944L233.611 248L233.25 246.5L233 245L230 245M271 247L270.917 248.5L270.778 249.056L270.611 250.056L270.389 251L270.083 253L270.028 253.944L270 254.944L270 257L272 257L272 254.944L272.028 253.944L272.083 253L272.361 251L272.5 250.028L272.5 249.111L272.111 247.778L271 247z"/>
<path style="fill:#a28d8c; stroke:none;" d="M294 247L295 248L294 247M288 252L289 253L288 252z"/>
<path style="fill:#815e5d; stroke:none;" d="M277.667 257.333L278 257.667L278.333 257.667L278 257.333L277.667 257.333z"/>
</svg>
